<svg id="Layer_1" enable-background="new 0 0 512 512" height="512" viewBox="0 0 512 512" width="512" xmlns="http://www.w3.org/2000/svg"><g><path d="m485.616 352.603c9.94-26.65 15.385-55.49 15.385-85.605 0-135.311-109.691-245.002-245.002-245.002s-245.002 109.691-245.002 245.002c0 30.115 5.445 58.955 15.385 85.605z" fill="#e80054"/><path d="m408.228 205.191c-15.47 16.676-33.069 43.538-40.547 83.681h5.992c11.826 0 21.448 9.622 21.448 21.448v158.356c41.456-28.652 73.652-69.743 91.174-117.892-16.704-46.385-51.642-108.812-78.067-145.593z" fill="#4b6bb2"/><path d="m441.135 357.233s-33.418.133-46.014-20.3v46.067z" fill="#3c58a0"/><g><path d="m386.605 402.5c-3.32-2.477-4.003-7.176-1.526-10.496 23.886-32.013 54.754-34.674 56.057-34.771 4.142-.305 7.73 2.789 8.04 6.919.309 4.118-2.769 7.708-6.881 8.037-1.074.093-25.583 2.504-45.193 28.786-2.466 3.301-7.163 4.014-10.497 1.525z" fill="#334d96"/></g><path d="m25.705 350.784c17.522 48.149 49.719 89.241 91.175 117.892v-158.356c0-11.826 9.622-21.448 21.448-21.448h5.991c-7.479-40.143-25.078-67.005-40.547-83.681-26.426 36.781-61.363 99.208-78.067 145.593z" fill="#3c58a0"/><path d="m70.865 357.233s46.161-12.233 46.161-40.233v67.5z" fill="#334d96"/><path d="m408 204.872c-12.944-17.978-36.23-28.582-60.748-34.796-11.845 23.197-40.567 46.642-58.459 59.732-10.778 7.885-20.174 17.501-27.89 28.4-2.394 3.382-7.412 3.382-9.807 0-7.715-10.899-17.112-20.515-27.89-28.4-17.891-13.089-46.614-36.535-58.459-59.732-24.518 6.215-47.804 16.819-60.748 34.796-.366.508-.736 1.029-1.105 1.547 15.191 16.755 32.129 43.278 39.427 82.453h227.355c7.298-39.175 24.236-65.698 39.427-82.453-.367-.518-.737-1.039-1.103-1.547z" fill="#3c58a0"/><path d="m176.359 288.871c-.16-.506-.326-1.007-.5-1.5-17.109-48.537 20.079-64.31 33.389-68.302-16.432-13.296-35.421-31.215-44.5-48.995-24.518 6.215-47.804 16.819-60.748 34.796-.366.508-.736 1.029-1.105 1.547 15.191 16.755 32.129 43.278 39.427 82.453h34.037z" fill="#2a428c"/><path d="m188.027 92.996c11.69-5.853 24.212-8.624 36.795-8.624h31.178 31.178c12.583 0 25.105 2.771 36.795 8.624 6.861 3.435 13.979 8.162 19.934 14.597-11.465-45.244-36.317-107.593-86.241-107.593-49.387 0-75.562 61.014-88.168 106.126 5.652-5.693 12.2-9.962 18.529-13.13z" fill="#4b6bb2"/><path d="m257.666 0c-49.387 0-75.562 61.014-88.168 106.126 5.652-5.693 12.2-9.962 18.529-13.13 11.69-5.853 24.212-8.624 36.795-8.624h22.354c.508-1.631.472-3.399-.2-5.02-20.684-49.904 35.759-73.514 35.759-73.514-7.558-3.723-15.888-5.838-25.069-5.838z" fill="#3c58a0"/><path d="m256 108.833h29.498c11.905 0 23.752 2.086 34.812 6.49 13.171 5.245 27.354 14.477 31.262 30.387-1.255-8.44-3.743-22.901-8.025-39.524-5.88-6.238-12.852-10.841-19.574-14.207-11.69-5.853-24.212-8.624-36.795-8.624h-31.178-31.179c-12.583 0-25.105 2.771-36.795 8.624-6.18 3.094-12.571 7.233-18.13 12.727-4.585 16.16-7.442 30.412-9.001 39.291 4.474-14.864 18.104-23.62 30.795-28.674 11.06-4.404 22.907-6.49 34.812-6.49z" fill="#2a428c"/><path d="m247.417 83.355h-22.596c-12.583 0-25.105 2.771-36.795 8.624-6.18 3.094-12.571 7.233-18.13 12.727-4.585 16.16-7.442 30.412-9.001 39.291 4.474-14.864 18.104-23.62 30.795-28.674 11.06-4.404 22.907-6.49 34.812-6.49h21.33c-.127-1.336-.601-2.632-1.422-3.737-5.782-7.775-2.849-14.805-.221-18.655.642-.941 1.049-1.998 1.228-3.086z" fill="#1c2e7a"/><path d="m320.31 114.306c-11.06-4.405-22.907-6.49-34.812-6.49h-29.498-29.498c-11.905 0-23.752 2.086-34.812 6.49-15.456 6.155-32.317 17.794-32.317 39.281 0 28.511 40.854 62.408 63.834 79.22 10.777 7.885 20.174 17.501 27.89 28.4 2.394 3.382 7.412 3.382 9.807 0 7.716-10.899 17.112-20.515 27.89-28.4 22.98-16.812 63.834-50.709 63.834-79.22-.001-21.488-16.862-33.126-32.318-39.281z" fill="#1c2e7a"/><path d="m256 202.087-26.735 2.64s15.017 23.555 15.017 46.708v1.019c2.392 2.816 4.675 5.73 6.815 8.753 2.394 3.382 7.413 3.382 9.807 0 2.14-3.024 4.423-5.937 6.815-8.753v-1.019c0-23.153 15.016-46.708 15.016-46.708z" fill="#2a428c"/><path d="m326.613 130.695c.966-3.016 3.148-7.081 4.284-11.26-3.458-2.029-7.058-3.724-10.587-5.129-1.09-.434-2.194-.828-3.299-1.217-.008 1.619-.108 3.24-.329 4.853l-3.073 22.381c0 1.804-.057 3.574-.161 5.313 7.493 2.26 11.215-4.467 11.842-9.083.269-1.989.711-3.947 1.323-5.858z" fill="#fcad6d"/><path d="m181.103 119.435c1.135 4.179 3.318 8.244 4.284 11.26.612 1.911 1.053 3.87 1.323 5.857.627 4.617 4.349 11.343 11.842 9.083-.105-1.739-.161-3.509-.161-5.313l-3.073-22.381c-.221-1.612-.321-3.234-.329-4.853-1.105.389-2.209.783-3.299 1.217-3.529 1.406-7.129 3.101-10.587 5.13z" fill="#fd995b"/><path d="m256 217.919c9.694 0 19.107-6.269 26.735-12.192 14.613-11.348 31.793-33.223 31.793-65.405l3.073-22.381c.206-1.498.32-3.004.343-4.508-10.378-3.789-21.382-5.617-32.445-5.617h-29.499-29.498c-11.063 0-22.067 1.828-32.445 5.617.023 1.503.136 3.007.342 4.504l3.074 22.386c0 32.182 17.179 54.057 31.792 65.405 7.628 5.922 17.04 12.191 26.735 12.191z" fill="#f9ba8f"/><path d="m272.872 205.226c-15.213-11.814-33.098-34.587-33.098-68.091-.418-3.128-.787-5.848-1.113-8.224-1.159-8.455 2.628-16.503 9.147-21.097h-21.307c-11.063 0-22.067 1.828-32.445 5.617.023 1.503.136 3.007.342 4.504l3.074 22.386c0 32.182 17.179 54.057 31.792 65.405 7.628 5.923 17.041 12.192 26.735 12.192 7.835 0 15.486-4.096 22.159-8.793-1.833-1.273-3.603-2.592-5.286-3.899z" fill="#fcad6d"/><g><path d="m298.25 300.023c-4.142 0-7.5-3.358-7.5-7.5v-42.303c0-4.142 3.358-7.5 7.5-7.5s7.5 3.358 7.5 7.5v42.302c0 4.143-3.358 7.501-7.5 7.501z" fill="#4b6bb2"/></g><g><path d="m213.75 300.023c-4.142 0-7.5-3.358-7.5-7.5v-42.303c0-4.142 3.358-7.5 7.5-7.5s7.5 3.358 7.5 7.5v42.302c0 4.143-3.358 7.501-7.5 7.501z" fill="#4b6bb2"/></g><g><path d="m114.899 400.975c-19.626-26.305-44.161-28.698-45.195-28.787-4.111-.354-7.185-3.963-6.855-8.075.331-4.113 3.895-7.175 8.016-6.88 1.302.098 32.171 2.759 56.057 34.771 2.477 3.32 1.793 8.02-1.526 10.496-3.319 2.477-8.02 1.794-10.497-1.525z" fill="#2a428c"/></g><path d="m351.427 492.72h-190.853c29.327 12.414 61.575 19.28 95.426 19.28s66.099-6.866 95.427-19.28z" fill="#d3dcfb"/><path d="m262.673 501.613c1.342-2.934.928-6.361-.971-8.893h-101.128c29.327 12.414 61.575 19.28 95.426 19.28 2.492 0 4.972-.049 7.447-.123-2.433-4.089-1.978-7.631-.774-10.264z" fill="#bec8f7"/><path d="m373.673 287.371h-235.345c-12.621 0-22.948 10.327-22.948 22.948v157.316c16.951 11.902 35.476 21.711 55.205 29.051h170.831c19.729-7.34 38.254-17.148 55.205-29.051v-157.315c-.001-12.622-10.327-22.949-22.948-22.949z" fill="#e9efff"/><path d="m220.484 287.371h-82.156c-12.621 0-22.948 10.327-22.948 22.948v157.316c16.951 11.902 35.476 21.711 55.205 29.051h92.759c-.278-1.847-1.122-3.604-2.512-4.964-27.884-27.286-11.832-62.707-6.409-72.689 1.005-1.85 1.294-4.002.837-6.057l-8.715-39.192c-.569-2.559-2.251-4.742-4.596-5.914-41.846-20.924-27.217-65.009-22.136-77.272.426-1.035.649-2.129.671-3.227z" fill="#d3dcfb"/><ellipse cx="256" cy="391.788" fill="#bec8f7" rx="24.522" ry="24.522" transform="matrix(.134 -.991 .991 .134 -166.484 593.135)"/><path d="m268.261 391.788c0-6.771-5.489-12.261-12.261-12.261-6.771 0-12.261 5.489-12.261 12.261 0 6.771 5.489 12.261 12.261 12.261 6.771 0 12.261-5.49 12.261-12.261z" fill="#d3dcfb"/><g fill="#ff4155"><path d="m500.964 264.013c-1.08-90.261-50.957-168.773-124.488-210.381-8.376 11.807-16.85 29.011-9.674 43.96 12.364 25.759-11.334 46.881 49.457 73.155 59.742 25.821 21.971 97.398 84.705 93.266z"/><path d="m11.036 264.013c62.734 4.132 24.963-67.445 84.705-93.265 60.791-26.274 37.093-47.396 49.457-73.155 7.176-14.949-1.298-32.153-9.674-43.96-73.531 41.607-123.409 120.118-124.488 210.38z"/></g></g></svg>